<?xml version="1.0" encoding="utf-8"?>
<!-- Generator: Adobe Illustrator 27.0.0, SVG Export Plug-In . SVG Version: 6.00 Build 0)  -->
<svg version="1.1" id="Layer_1" xmlns="http://www.w3.org/2000/svg" xmlns:xlink="http://www.w3.org/1999/xlink" x="0px" y="0px"
	 viewBox="0 0 1080 1350" style="enable-background:new 0 0 1080 1350;" xml:space="preserve">
<style type="text/css">
	.st0{clip-path:url(#SVGID_00000068655265472447756330000010622643689482610090_);}
	.st1{clip-path:url(#SVGID_00000030450545796888170860000005130644966497434017_);}
	.st2{clip-path:url(#SVGID_00000170997592348355617180000016713134662857330352_);}
	.st3{fill:#FFCCFF;}
	.st4{clip-path:url(#SVGID_00000062896112669347308440000012543318488194240431_);}
</style>
<g>
	<defs>
		<rect id="SVGID_1_" x="0.3" width="741.1" height="1086.7"/>
	</defs>
	<clipPath id="SVGID_00000072253512238882017010000017881567306111385504_">
		<use xlink:href="#SVGID_1_"  style="overflow:visible;"/>
	</clipPath>
	<g style="clip-path:url(#SVGID_00000072253512238882017010000017881567306111385504_);">
		<g>
			<defs>
				
					<rect id="SVGID_00000003076334948055993280000011529369384219400886_" x="-945.5" y="-426.5" transform="matrix(0.8788 -0.4772 0.4772 0.8788 -148.8002 -0.5071)" width="1740.1" height="1438.3"/>
			</defs>
			<clipPath id="SVGID_00000121271410977135955760000017247686468832618659_">
				<use xlink:href="#SVGID_00000003076334948055993280000011529369384219400886_"  style="overflow:visible;"/>
			</clipPath>
			<g style="clip-path:url(#SVGID_00000121271410977135955760000017247686468832618659_);">
				<g>
					<defs>
						
							<rect id="SVGID_00000086688208204515383110000003026364883609449126_" x="-945.5" y="-426.5" transform="matrix(0.8788 -0.4772 0.4772 0.8788 -148.8002 -0.5071)" width="1740.1" height="1438.3"/>
					</defs>
					<clipPath id="SVGID_00000093868171208220945260000010633074555635643067_">
						<use xlink:href="#SVGID_00000086688208204515383110000003026364883609449126_"  style="overflow:visible;"/>
					</clipPath>
					<g style="clip-path:url(#SVGID_00000093868171208220945260000010633074555635643067_);">
						<path class="st3" d="M0.6-354.8C31.6-413.9,87.2-475,152.5-461.5c48.2,10.2,79.8,61.2,82.2,110.4s-26.4,93.4-41.1,140.5
							c-59,189,163.3,70.7,228.6,40.3C487.3-201,568.7-204,628.4-164c59.7,40,87.8,127.7,49.5,188.4c-18.1,28.6-47.3,48.4-71.8,71.8
							c-24.5,23.5-45.7,55.7-39.6,89.2c11.2,62.4,96.8,73.1,141.7,117.6c39.7,39.1,42.6,107.2,11.8,153.7
							c-30.8,46.4-89.4,70.4-144.8,65.7c-81.2-6.8-155.1-67.3-235.5-55.3c-48.6,7.2-90.5,40.9-115.4,83
							C199.4,592.3,190,642,188.4,691c-1.2,38.2,34.6,164-36.3,258.9c-46.7,62.5-198.4,67.8-229.9-166.8
							c-3.7-28.5-57.6-160.9-234.8,136.5c-23.2,38.8-47.9,76.9-79.6,109.4c-31.7,32.5-73.8,57.3-118.8,56.7
							c-86.7-1.1-147.2-100.2-134.5-185.7c12.7-85.6,77.7-154.6,148.4-204.7c23.1-16.5,49.8-35.2,53.3-63.4
							c4.5-40-42.9-68.3-82.9-65.4c-40.2,3.1-76.3,24.6-115.5,34.5c-76.8,19.4-163.8-13.2-208.9-78.4
							c-45.2-65.1-45.2-158.3-0.3-223.3c44.9-65.1,132-97.9,208.8-79c29,7.3,56.6,21.3,86.6,24.6s65-8.7,74.9-37.2
							c14.9-41.8-30.5-77.8-66.5-103.7C-606.7,61.5-658.1,0.2-666-72.2c-8-72.4,41.6-152.6,114.4-158.4
							c45.1-3.4,87.7,20.9,121.8,50.5c34.1,29.6,89.3,67.8,131.8,82.7C-79.1-21.4-41.3-274.1,0.6-354.8z"/>
					</g>
				</g>
			</g>
		</g>
	</g>
</g>
<g>
	<defs>
		<rect id="SVGID_00000097477983928406540400000003967090775169869229_" x="57.3" y="425.9" width="413.3" height="394.1"/>
	</defs>
	<clipPath id="SVGID_00000047054294560183240730000006715316535835444369_">
		<use xlink:href="#SVGID_00000097477983928406540400000003967090775169869229_"  style="overflow:visible;"/>
	</clipPath>
	<g style="clip-path:url(#SVGID_00000047054294560183240730000006715316535835444369_);">
		<path class="st3" d="M394.2,473c-18.8,4.1-37,10-55,17.8c-37.9,16.3-64.3,40.7-87.8,74.6c-44.5,64.1-54.6,146.5-94.8,213.4
			c-11.4,18.9-27.3,37.7-49.1,40.8c-24.7,3.5-49.6-18.8-49.1-43.7c0.9-39,52.2-65.5,46.9-104.2c-3.5-25.5-30.3-40.9-41.3-64.2
			c-10.6-22.4-4.9-50,9-70.5c14-20.5,35-35,56.5-47.4c72.5-41.7,156.2-63.9,239.8-63.5c34.5,0.1,114.8,9.5,98.5,25.6
			c-14,13.9-32.8,14.5-51.1,17.2C409,470.1,401.5,471.4,394.2,473"/>
	</g>
</g>
</svg>
