<?xml version="1.0" encoding="utf-8"?>
<!-- Generator: Adobe Illustrator 27.0.0, SVG Export Plug-In . SVG Version: 6.00 Build 0)  -->
<svg version="1.1" id="Layer_1" xmlns="http://www.w3.org/2000/svg" xmlns:xlink="http://www.w3.org/1999/xlink" x="0px" y="0px"
	 viewBox="0 0 1080 1350" style="enable-background:new 0 0 1080 1350;" xml:space="preserve">
<style type="text/css">
	.st0{clip-path:url(#SVGID_00000082338099584226261430000007481082939311068317_);}
	.st1{clip-path:url(#SVGID_00000055686016411130628890000002128154730154091397_);}
	.st2{clip-path:url(#SVGID_00000010295102327229477750000017095131120845040282_);}
	.st3{fill:#FFCCFF;}
	.st4{clip-path:url(#SVGID_00000011023670842428808810000008236973085538351503_);}
</style>
<g>
	<g>
		<defs>
			
				<rect id="SVGID_1_" x="337.3" y="1" transform="matrix(0.9999 -1.039070e-02 1.039070e-02 0.9999 -5.618 7.3844)" width="741.1" height="1086.7"/>
		</defs>
		<clipPath id="SVGID_00000018228994933429013720000015663667690010087866_">
			<use xlink:href="#SVGID_1_"  style="overflow:visible;"/>
		</clipPath>
		<g style="clip-path:url(#SVGID_00000018228994933429013720000015663667690010087866_);">
			<g>
				<g>
					<defs>
						
							<rect id="SVGID_00000114784100547605635440000011647209145620834745_" x="286.7" y="71.2" transform="matrix(0.8738 -0.4863 0.4863 0.8738 -238.3685 662.2761)" width="1740.1" height="1438.3"/>
					</defs>
					<clipPath id="SVGID_00000056414955743466932960000005999648147310119838_">
						<use xlink:href="#SVGID_00000114784100547605635440000011647209145620834745_"  style="overflow:visible;"/>
					</clipPath>
					<g style="clip-path:url(#SVGID_00000056414955743466932960000005999648147310119838_);">
						<g>
							<g>
								<defs>
									
										<rect id="SVGID_00000053524095819395532920000004550682111440784519_" x="286.7" y="71.2" transform="matrix(0.8738 -0.4863 0.4863 0.8738 -238.3685 662.2761)" width="1740.1" height="1438.3"/>
								</defs>
								<clipPath id="SVGID_00000111898002485083261860000013172867959551727264_">
									<use xlink:href="#SVGID_00000053524095819395532920000004550682111440784519_"  style="overflow:visible;"/>
								</clipPath>
								<g style="clip-path:url(#SVGID_00000111898002485083261860000013172867959551727264_);">
									<path class="st3" d="M1087.4,1438.6c-30.4,59.4-85.3,121.1-150.8,108.3c-48.3-9.7-80.4-60.4-83.3-109.5
										c-2.9-49.2,25.4-93.7,39.6-140.9c57-189.6-164-69-229-37.9c-64.8,31.4-146.1,35.2-206.3-4.2s-89.1-126.8-51.5-187.9
										c17.8-28.8,46.8-48.9,71.1-72.5c24.3-23.8,45.1-56.2,38.7-89.6C504.1,842,418.4,832.2,373,788.2
										c-40.1-38.7-43.7-106.8-13.4-153.6c30.3-46.7,88.7-71.3,144.1-67.2c81.3,6,155.8,65.7,236.1,52.8
										c48.5-7.7,90.1-41.8,114.5-84.2c24.5-42.5,33.3-92.3,34.4-141.3c0.8-38.2-36.3-163.6,33.6-259.3
										c46-63,197.7-69.9,231.6,164.4c4,28.5,59.3,160.3,233.4-138.9c22.8-39,47.1-77.4,78.5-110.2C1497.2,18,1539-7.3,1584-7.1
										c86.7,0.2,148.2,98.7,136.4,184.3c-11.8,85.7-76.1,155.4-146.3,206.2c-22.9,16.7-49.4,35.7-52.6,64
										c-4.1,40,43.6,67.9,83.6,64.5c40.2-3.5,76-25.4,115.1-35.7c76.6-20.2,163.9,11.5,209.7,76.2
										c45.9,64.6,46.8,157.8,2.6,223.3c-44.2,65.6-131,99.3-208,81.2c-29.1-7-56.8-20.7-86.9-23.7c-30-3-64.9,9.4-74.5,38
										c-14.5,42,31.3,77.5,67.6,103c59.5,41.9,111.6,102.6,120.2,175c8.8,72.3-40,153-112.7,159.6c-45.1,3.9-87.9-20-122.3-49.2
										c-34.4-29.2-90-66.9-132.7-81.3C1163.6,1104.4,1128.5,1357.5,1087.4,1438.6z"/>
								</g>
							</g>
						</g>
					</g>
				</g>
			</g>
		</g>
	</g>
</g>
<g>
	<g>
		<defs>
			
				<rect id="SVGID_00000019646850706537647840000015250150290805034926_" x="607.3" y="266.6" transform="matrix(0.9999 -1.039070e-02 1.039070e-02 0.9999 -4.7736 8.4822)" width="413.3" height="394.1"/>
		</defs>
		<clipPath id="SVGID_00000098921592685510710240000003569668819216892601_">
			<use xlink:href="#SVGID_00000019646850706537647840000015250150290805034926_"  style="overflow:visible;"/>
		</clipPath>
		<g style="clip-path:url(#SVGID_00000098921592685510710240000003569668819216892601_);">
			<path class="st3" d="M685.2,614.9c18.8-4.3,36.9-10.4,54.8-18.4c37.7-16.7,63.9-41.4,87-75.5c43.8-64.6,53.1-147.1,92.6-214.4
				c11.2-19,26.9-38,48.7-41.3c24.7-3.8,49.8,18.3,49.6,43.2c-0.5,39-51.5,66-45.8,104.7c3.8,25.5,30.7,40.6,42,63.8
				c10.8,22.3,5.4,49.9-8.3,70.6c-13.8,20.6-34.6,35.4-56,48c-72.1,42.5-155.5,65.5-239.1,66c-34.5,0.3-114.9-8.3-98.8-24.6
				c13.9-14,32.6-14.8,50.9-17.7C670.5,618,677.9,616.6,685.2,614.9"/>
		</g>
	</g>
</g>
</svg>
